<svg xmlns="http://www.w3.org/2000/svg" enable-background="new 0 0 66 66" viewBox="0 0 66 66" id="bearded-man"><path fill="#6AC9E8" d="M63.012,64.9252H2.988c0-8.8171,6.1313-16.4405,14.7313-18.3396l0,0
		c10.0621-2.2162,20.4859-2.2171,30.5484-0.0028l0.013,0.0029C56.8807,48.4847,63.012,56.1081,63.012,64.9252z"></path><path fill="#CED7DC" d="M43.3399,47.1191v9.1083L33,52.8717l-10.3399,3.3557v-9.1083c0-2.7229,2.5034-4.9472,5.6162-4.9472h9.4256
		C40.8148,42.1719,43.3399,44.3962,43.3399,47.1191z"></path><path fill="#F8A771" d="M39.5384,35.4713v9.4117c0,3.8418-2.8394,6.9547-6.3437,6.9547h-0.3893
		c-3.5042,0-6.3437-3.113-6.3437-6.9547v-9.4117H39.5384z"></path><rect width="5.139" height="13.088" x="30.43" y="51.838" fill="#CED7DC"></rect><circle cx="33" cy="56.178" r="1.254"></circle><circle cx="33" cy="61.789" r="1.254"></circle><path fill="#FAB687" d="M44.0347,9.8661c-6.1141-7.4164-15.9521-7.4231-22.0717,0c-2.8434,3.457-4.6025,8.2232-4.6025,13.5008
		c0,1.3091,0.1125,2.5978,0.3171,3.8354c1.4626,8.6937,7.7629,15.2293,15.3213,15.2293c7.5584,0,13.8588-6.5356,15.3214-15.2293
		c0.2046-1.2376,0.3171-2.5263,0.3171-3.8354C48.6373,18.0893,46.8781,13.3231,44.0347,9.8661z"></path><circle cx="27.825" cy="26.607" r="1.614" fill="#3D2F46"></circle><circle cx="38.173" cy="26.607" r="1.614" fill="#3D2F46"></circle><path fill="#3D2F46" d="M29.1618 22.6919l-.0316-.1611c-.0768-.3918-.4566-.6473-.8484-.5705l-3.4406.674c-.3918.0768-.6472.4566-.5705.8484l.0316.1611c.0768.3918.4567.6473.8485.5706l3.4405-.6741C28.9832 23.4636 29.2385 23.0837 29.1618 22.6919zM41.1565 22.6343l-3.4406-.674c-.3918-.0768-.7717.1786-.8484.5705l-.0316.1611c-.0767.3918.1786.7717.5705.8484l3.4405.6741c.3918.0767.7717-.1787.8485-.5706l.0316-.1611C41.8037 23.0909 41.5483 22.7111 41.1565 22.6343z"></path><path fill="#3D2F46" d="M18.5884,22.8089l2.0715-3.5512c0.6081-1.0504,0.5198-1.7624,1.2928-5.4128
		c0.4414-2.3018,2.6907-3.7838,4.9714-3.2898c3.972,0.7278,5.2557,1.4774,7.4786,0.9989l4.6399-0.9989
		c2.2912-0.494,4.5405,0.988,4.9819,3.2898c1.7674,6.9622-0.6164,1.9184,3.3644,8.964h2.7205
		C49.4585,10.9586,44.8892,1.0748,32.9781,1.0748c-11.871,0.0093-16.4577,9.8548-17.1102,21.7341H18.5884z"></path><path fill="#FAB687" d="M16.6566 20.7941c-1.3176 0-2.0678 2.0342-1.6902 4.4504.3624 2.319 1.6373 4.1317 2.8606 4.1317s2.0038-1.8126 1.7337-4.1317C19.2792 22.8283 17.9742 20.7941 16.6566 20.7941zM49.3412 20.7941c-1.3176 0-2.6227 2.0342-2.9041 4.4504-.2701 2.319.5104 4.1317 1.7337 4.1317s2.4982-1.8126 2.8606-4.1317C51.409 22.8283 50.6588 20.7941 49.3412 20.7941z"></path><path fill="#3D2F46" d="M40.5555,35.7027l0,2.6471c0,3.9079-3.1083,7.0994-7.0142,7.2254
			c-0.5008,0.0162-1.0045,0.0099-1.5032-0.0187c-3.7397-0.2149-6.596-3.4486-6.5959-7.1945l0-2.6593
			c0-1.3997,1.1347-2.5343,2.5343-2.5343h10.0447C39.4209,33.1684,40.5555,34.3031,40.5555,35.7027z"></path><path fill="#C6765F" d="M37.4067,36.8597c-1.1264,4.4119-7.7188,4.3483-8.8153,0.0078c-0.1018-0.4071,0.2192-0.7907,0.6341-0.7907
			h7.547C37.1797,36.0768,37.5085,36.4605,37.4067,36.8597z"></path><path fill="#FFF" d="M35.2492,36.0735v0.8036c0,0.1872-0.1327,0.3276-0.2965,0.3276h-3.9319
			c-0.1638,0-0.3042-0.1404-0.3042-0.3276v-0.8036H35.2492z"></path><path fill="#EF4F63" d="M36.3336,38.765c-1.2943,1.2983-3.0188,1.655-4.5872,1.2326l0.0078-0.0078
			C32.3226,38.5907,34.2916,37.744,36.3336,38.765z"></path></svg>